<?xml version="1.0" encoding="UTF-8"?>
<!--Generator: Apple Native CoreSVG 341-->
<!DOCTYPE svg
PUBLIC "-//W3C//DTD SVG 1.1//EN"
       "http://www.w3.org/Graphics/SVG/1.1/DTD/svg11.dtd">
<svg version="1.1" xmlns="http://www.w3.org/2000/svg" xmlns:xlink="http://www.w3.org/1999/xlink" viewBox="0 0 136.571 196.991">
 <defs>
  <linearGradient id="gradient1" x1="5" x2="5" y2="175.879" gradientUnits="userSpaceOnUse">
   <stop offset="0" stop-color="#7dcd64" stop-opacity="1"/>
   <stop offset="1" stop-color="#62ba46" stop-opacity="1"/>
  </linearGradient>
  <linearGradient id="gradient2" x1="5" x2="5" y2="175.879" gradientUnits="userSpaceOnUse">
   <stop offset="0" stop-color="#7dcd64" stop-opacity="1"/>
   <stop offset="1" stop-color="#62ba46" stop-opacity="1"/>
  </linearGradient>
  <linearGradient id="gradient3" x1="5" x2="5" y2="175.879" gradientUnits="userSpaceOnUse">
   <stop offset="0" stop-color="rgba(50,50,50,0.85)" stop-opacity="1"/>
   <stop offset="1" stop-color="rgba(0,0,0,0.85)" stop-opacity="1"/>
  </linearGradient>
 </defs>
 <g>
  <rect height="196.991" opacity="0" width="136.571" x="0" y="0"/>
  <path d="M136.571 101.637L136.571 149.816C136.571 166.53 127.25 175.879 110.563 175.879L52.139 175.879C35.3716 175.879 26.1033 166.53 26.1033 149.816L26.1033 149.695L34.7798 149.695L34.7798 149.816C34.7798 160.932 41.0228 167.202 52.139 167.202L110.563 167.202C121.68 167.202 127.87 160.932 127.87 149.816L127.87 101.637C127.87 90.6011 121.68 84.3305 110.563 84.3305L110.468 84.3305L110.468 75.654L110.563 75.654C127.25 75.654 136.571 84.9223 136.571 101.637Z" fill="url(#gradient1)"/>
  <path d="M110.468 75.5059L110.468 123.632C110.468 140.346 101.147 149.695 84.4325 149.695L26.008 149.695C9.32106 149.695 0 140.346 0 123.632L0 75.5059C0 58.7385 9.32106 49.4702 26.008 49.4702L39.9142 49.4702L39.9142 58.1191L25.9803 58.1191C14.8918 58.1191 8.64886 64.362 8.64886 75.4254L8.64886 123.66C8.64886 134.776 14.8918 141.046 25.9803 141.046L84.4325 141.046C95.5763 141.046 101.819 134.776 101.819 123.66L101.819 75.4254C101.819 64.362 95.5763 58.1191 84.4325 58.1191L70.5012 58.1191L70.5012 49.4702L84.4325 49.4702C101.147 49.4702 110.468 58.7385 110.468 75.5059Z" fill="url(#gradient2)"/>
  <path d="M33.7858 38.3897C34.821 38.3897 36.0146 37.9374 36.7584 37.0881L47.3997 25.9442L55.2077 17.7418L63.0131 25.9442L73.6293 37.0881C74.4259 37.9374 75.5139 38.3897 76.6019 38.3897C78.7754 38.3897 80.5017 36.769 80.5017 34.6206C80.5017 33.427 80.0243 32.5777 79.2277 31.8088L58.3109 11.4171C57.2505 10.3567 56.3485 10.0125 55.2077 10.0125C54.1197 10.0125 53.1899 10.3567 52.1045 11.4171L31.2127 31.8088C30.3634 32.5777 29.9388 33.427 29.9388 34.6206C29.9388 36.769 31.557 38.3897 33.7858 38.3897ZM55.2077 100.886C57.542 100.886 59.5321 98.9761 59.5321 96.7473L59.5321 31.1711L58.8713 15.5985C58.7658 13.6084 57.1978 11.9349 55.2077 11.9349C53.2427 11.9349 51.7024 13.6084 51.5968 15.5985L50.936 31.1711L50.936 96.7473C50.936 98.9761 52.9261 100.886 55.2077 100.886Z" fill="url(#gradient3)"/>
 </g>
</svg>
